<svg width="23" height="23" viewBox="0 0 23 23" fill="none" xmlns="http://www.w3.org/2000/svg">
<path d="M17.7762 17.965C18.2155 17.6302 18.3001 17.0027 17.9653 16.5635C17.6305 16.1242 17.003 16.0396 16.5638 16.3744L17.7762 17.965ZM11.5 19.136V20.136C11.5054 20.136 11.5109 20.136 11.5163 20.1359L11.5 19.136ZM1 11.4997L0.118844 11.0268C-0.0347896 11.3132 -0.0397388 11.6563 0.105573 11.9469L1 11.4997ZM6.4369 6.62445C6.87584 6.28926 6.95996 5.66171 6.62478 5.22277C6.2896 4.78382 5.66204 4.69971 5.2231 5.03489L6.4369 6.62445ZM9.26754 3.11871C8.72979 3.24459 8.3959 3.78256 8.52177 4.32031C8.64765 4.85806 9.18562 5.19195 9.72337 5.06608L9.26754 3.11871ZM11.5 3.86331L11.4977 4.86331H11.5V3.86331ZM22 11.4997L22.8819 11.9711C23.0348 11.685 23.0395 11.3426 22.8944 11.0525L22 11.4997ZM19.173 13.9008C18.8174 14.3234 18.8718 14.9542 19.2943 15.3098C19.7169 15.6654 20.3478 15.6111 20.7033 15.1885L19.173 13.9008ZM14.2552 14.205C14.6318 13.801 14.6094 13.1682 14.2054 12.7917C13.8013 12.4152 13.1685 12.4375 12.792 12.8416L14.2552 14.205ZM10.1581 10.2076C10.5621 9.83114 10.5845 9.19837 10.208 8.79431C9.83147 8.39025 9.1987 8.36792 8.79464 8.74442L10.1581 10.2076ZM16.5638 16.3744C15.1018 17.4888 13.3217 18.1061 11.4837 18.1362L11.5163 20.1359C13.7812 20.0989 15.9748 19.3381 17.7762 17.965L16.5638 16.3744ZM11.5 18.136C8.5586 18.136 6.17961 16.4534 4.47386 14.6339C3.6301 13.7339 2.98004 12.8301 2.54103 12.1503C2.32215 11.8114 2.15737 11.5307 2.04869 11.3375C1.99439 11.241 1.9542 11.1665 1.92839 11.1177C1.91548 11.0933 1.90618 11.0754 1.90051 11.0643C1.89767 11.0588 1.89574 11.055 1.89473 11.053C1.89422 11.052 1.89394 11.0515 1.89389 11.0514C1.89387 11.0513 1.8939 11.0514 1.89399 11.0516C1.89403 11.0517 1.89414 11.0519 1.89416 11.0519C1.89429 11.0522 1.89443 11.0525 1 11.4997C0.105573 11.9469 0.105741 11.9472 0.105923 11.9476C0.106003 11.9477 0.106201 11.9481 0.106362 11.9485C0.106684 11.9491 0.107065 11.9499 0.107506 11.9507C0.108386 11.9525 0.109504 11.9547 0.110857 11.9574C0.113564 11.9627 0.117215 11.9699 0.121807 11.9788C0.13099 11.9967 0.143942 12.0216 0.160634 12.0531C0.194011 12.1162 0.242386 12.2058 0.305537 12.3181C0.431765 12.5425 0.617478 12.8584 0.860955 13.2354C1.34667 13.9874 2.06877 14.9927 3.01478 16.0018C4.88857 18.0005 7.75958 20.136 11.5 20.136V18.136ZM1.88116 11.9725C3.00109 9.8854 4.5544 8.06194 6.4369 6.62445L5.2231 5.03489C3.11395 6.64546 1.37361 8.68846 0.118844 11.0268L1.88116 11.9725ZM9.72337 5.06608C10.3049 4.92995 10.9004 4.8619 11.4977 4.8633L11.5023 2.86331C10.75 2.86154 10.0001 2.94725 9.26754 3.11871L9.72337 5.06608ZM11.5 4.86331C14.4414 4.86331 16.8204 6.54596 18.5261 8.36543C19.3699 9.26544 20.02 10.1693 20.459 10.849C20.6778 11.1879 20.8426 11.4686 20.9513 11.6618C21.0056 11.7583 21.0458 11.8328 21.0716 11.8816C21.0845 11.906 21.0938 11.924 21.0995 11.935C21.1023 11.9405 21.1043 11.9443 21.1053 11.9463C21.1058 11.9473 21.1061 11.9479 21.1061 11.948C21.1061 11.948 21.1061 11.9479 21.106 11.9478C21.106 11.9477 21.1059 11.9475 21.1058 11.9474C21.1057 11.9472 21.1056 11.9469 22 11.4997C22.8944 11.0525 22.8943 11.0521 22.8941 11.0518C22.894 11.0516 22.8938 11.0512 22.8936 11.0509C22.8933 11.0502 22.8929 11.0495 22.8925 11.0486C22.8916 11.0469 22.8905 11.0446 22.8891 11.042C22.8864 11.0366 22.8828 11.0295 22.8782 11.0205C22.869 11.0027 22.8561 10.9777 22.8394 10.9462C22.806 10.8831 22.7576 10.7936 22.6945 10.6813C22.5682 10.4569 22.3825 10.141 22.139 9.76396C21.6533 9.01189 20.9312 8.00663 19.9852 6.99755C18.1114 4.99884 15.2404 2.86331 11.5 2.86331V4.86331ZM21.1181 11.0283C20.5715 12.0509 19.9196 13.0136 19.173 13.9008L20.7033 15.1885C21.5395 14.1948 22.2697 13.1165 22.8819 11.9711L21.1181 11.0283ZM12.792 12.8416C12.3274 13.3402 11.6277 13.5454 10.9674 13.3768L10.4725 15.3146C11.8415 15.6642 13.2921 15.2387 14.2552 14.205L12.792 12.8416ZM10.9674 13.3768C10.3071 13.2082 9.79152 12.6925 9.62289 12.0322L7.68508 12.5271C8.03468 13.8961 9.10362 14.965 10.4725 15.3146L10.9674 13.3768ZM9.62289 12.0322C9.45426 11.3719 9.65949 10.6722 10.1581 10.2076L8.79464 8.74442C7.76097 9.7076 7.33548 11.1582 7.68508 12.5271L9.62289 12.0322Z" fill="#FF6550"/>
<path d="M1 1L22 22" stroke="#FF6550" stroke-width="2" stroke-linecap="round" stroke-linejoin="round"/>
</svg>
