<svg width="79" height="34" viewBox="0 0 79 34" fill="none" xmlns="http://www.w3.org/2000/svg">
<path d="M33.2151 16.9991C33.2151 26.1296 25.8355 33.5099 16.7057 33.5099C7.57592 33.5099 0.196289 26.1296 0.196289 16.9991C0.196289 7.86854 7.57592 0.488281 16.7057 0.488281C25.8355 0.488281 33.2151 7.89451 33.2151 16.9991ZM16.7057 3.39156C9.20142 3.39156 3.09933 9.49417 3.09933 16.9991C3.09933 24.504 9.20142 30.6066 16.7057 30.6066C24.21 30.6066 30.3121 24.504 30.3121 16.9991C30.3121 9.49417 24.21 3.39156 16.7057 3.39156Z" fill="#00B7FF"/>
<path d="M16.7327 21.3935C19.165 21.3935 21.1366 19.4216 21.1366 16.9892C21.1366 14.5568 19.165 12.585 16.7327 12.585C14.3005 12.585 12.3289 14.5568 12.3289 16.9892C12.3289 19.4216 14.3005 21.3935 16.7327 21.3935Z" fill="#FF5C8E"/>
<path d="M16.7063 3.26758C9.13456 3.26758 2.97534 9.42732 2.97534 16.9997C2.97534 24.5722 9.13456 30.7319 16.7063 30.7319C24.2781 30.7319 30.4373 24.5722 30.4373 16.9997C30.4373 9.42732 24.2781 3.26758 16.7063 3.26758ZM16.7063 30.4826C9.26958 30.4826 3.22462 24.4319 3.22462 16.9997C3.22462 9.56755 9.26958 3.51688 16.7063 3.51688C24.1431 3.51688 30.1881 9.56755 30.1881 16.9997C30.1881 24.4319 24.1379 30.4826 16.7063 30.4826Z" fill="#231F20"/>
<path d="M16.7067 0.291992C7.49389 0.291992 0 7.78651 0 17.0002C0 26.2138 7.49389 33.7083 16.7067 33.7083C25.9196 33.7083 33.4135 26.2138 33.4135 17.0002C33.4135 7.78651 25.9196 0.291992 16.7067 0.291992ZM16.7067 33.459C7.62891 33.459 0.244084 26.0736 0.244084 16.995C0.244084 7.91636 7.62891 0.530903 16.7067 0.530903C25.7846 0.530903 33.1694 7.91636 33.1694 16.995C33.1642 26.0788 25.7846 33.459 16.7067 33.459Z" fill="#231F20"/>
<path d="M12.3282 16.9887C12.3282 16.8381 12.3334 16.6874 12.349 16.542C12.349 16.5628 12.3438 16.5784 12.3438 16.5991C12.3386 16.6355 12.3386 16.6719 12.3334 16.703C12.3334 16.7134 12.3334 16.7186 12.3334 16.7238C12.3334 16.7394 12.3282 16.755 12.3282 16.7654C12.3282 16.8381 12.3282 16.9108 12.3282 16.9887C12.323 17.0614 12.3282 17.1342 12.3282 17.2069V17.2121C12.3334 17.29 12.3386 17.3679 12.349 17.4458V17.451C12.3542 17.5082 12.3594 17.5601 12.3698 17.6121C12.375 17.6588 12.3853 17.7056 12.3905 17.7523C12.4165 17.8926 12.4476 18.0276 12.484 18.1627C12.4891 18.1783 12.4943 18.1939 12.4995 18.2094C12.5047 18.2302 12.5151 18.251 12.5203 18.2718C12.3957 17.8614 12.3282 17.4355 12.3282 16.9887Z" fill="#000E4F"/>
<path d="M12.7286 18.8173C12.7286 18.8225 12.7337 18.8225 12.7337 18.8276C12.7234 18.807 12.7131 18.7865 12.7029 18.7607C12.7131 18.7813 12.7234 18.8019 12.7286 18.8173Z" fill="#000E4F"/>
<path d="M12.5313 18.3086C12.5364 18.3241 12.5416 18.3396 12.5468 18.3552C12.5571 18.3862 12.5674 18.4121 12.5778 18.438C12.5778 18.4431 12.5829 18.4483 12.5829 18.4535C12.5674 18.4121 12.5468 18.3603 12.5313 18.3086Z" fill="#000E4F"/>
<path d="M12.3542 16.5208C12.3542 16.526 12.3542 16.5311 12.3542 16.5363C12.3594 16.4949 12.3646 16.4535 12.3698 16.4121C12.3646 16.4483 12.3594 16.4794 12.3542 16.5208Z" fill="#000E4F"/>
<path d="M14.9247 20.9777C14.9455 20.9881 14.9662 20.9933 14.987 21.0036C14.9403 20.9829 14.8936 20.9622 14.8469 20.9414C14.8729 20.9518 14.8988 20.9673 14.9247 20.9777Z" fill="#000E4F"/>
<path d="M14.7019 20.874C14.7226 20.8844 14.7484 20.8947 14.7742 20.9102C14.7484 20.8947 14.7277 20.8844 14.7019 20.874Z" fill="#000E4F"/>
<path d="M12.614 18.542C12.614 18.5472 12.6192 18.5523 12.6192 18.5575C12.6295 18.5886 12.6399 18.6144 12.6554 18.6455C12.6554 18.6507 12.6605 18.6558 12.6605 18.661C12.645 18.6196 12.6295 18.5834 12.614 18.542Z" fill="#000E4F"/>
<path d="M15.0748 21.0403C15.1008 21.0506 15.1267 21.061 15.1578 21.0714C15.1111 21.0558 15.0645 21.0351 15.0229 21.0195C15.0333 21.0247 15.0541 21.0351 15.0748 21.0403Z" fill="#000E4F"/>
<path d="M13.7282 20.1913C13.7236 20.1867 13.7143 20.1775 13.7097 20.1729C13.7143 20.1775 13.7236 20.1821 13.7282 20.1913Z" fill="#000E4F"/>
<path d="M13.5752 20.0387C13.5752 20.0387 13.5696 20.033 13.5696 20.0273C13.5696 20.033 13.5696 20.0387 13.5752 20.0387Z" fill="#000E4F"/>
<path d="M13.8809 20.3284C13.886 20.3336 13.8912 20.3387 13.8963 20.3439C13.8809 20.3284 13.8655 20.313 13.845 20.3027C13.8604 20.3079 13.8706 20.3182 13.8809 20.3284Z" fill="#000E4F"/>
<path d="M13.9443 20.376C13.9597 20.3863 13.9751 20.4017 13.9905 20.412C13.9751 20.4017 13.9597 20.3863 13.9443 20.376Z" fill="#000E4F"/>
<path d="M25.784 14.2734C25.4828 13.7904 25.0984 13.3593 24.657 13.001C24.6518 13.3126 24.6207 13.619 24.5583 13.9307C24.8751 14.2527 25.14 14.6214 25.3425 15.0317C25.6385 15.6186 25.8047 16.2834 25.8047 16.9845C25.8047 17.6857 25.6385 18.3505 25.3425 18.9374C25.14 19.3425 24.8699 19.7164 24.5583 20.0385C24.6155 20.3449 24.6518 20.6565 24.657 20.9681C25.0984 20.6098 25.4776 20.1787 25.784 19.6957C26.2773 18.9062 26.563 17.9817 26.563 16.9845C26.5578 15.9926 26.2773 15.0629 25.784 14.2734Z" fill="#000E4F"/>
<path d="M21.4376 21.3573C21.3857 21.3573 21.3286 21.3573 21.2766 21.3521C21.0326 21.3417 20.7989 21.3158 20.5652 21.269C20.3419 21.2223 20.1237 21.1599 19.9108 21.082C19.9108 21.3417 19.8952 21.6014 19.8589 21.8612C20.3003 22.0066 20.7729 22.0897 21.2559 22.1053C21.313 22.1053 21.3753 22.1105 21.4324 22.1105C21.931 22.1105 22.414 22.0378 22.871 21.9027C22.9281 21.6326 22.9593 21.3573 22.9541 21.082C22.5594 21.2327 22.1335 21.321 21.6921 21.3469C21.6142 21.3521 21.5259 21.3573 21.4376 21.3573Z" fill="#000E4F"/>
<path d="M20.5705 12.7044C20.799 12.6577 21.0379 12.6265 21.282 12.6213C21.3028 12.6213 21.3183 12.6213 21.3391 12.6213C21.3703 12.6213 21.4066 12.6213 21.443 12.6213C21.5313 12.6213 21.6195 12.6265 21.7026 12.6317C22.1441 12.6577 22.5699 12.7512 22.9646 12.8966C22.9646 12.6213 22.9386 12.346 22.8815 12.0759C22.4245 11.9409 21.9415 11.8682 21.443 11.8682C20.7938 11.8682 20.1706 11.9876 19.5994 12.211C19.8642 12.372 20.1187 12.559 20.3524 12.7616C20.4199 12.7356 20.4926 12.72 20.5705 12.7044Z" fill="#000E4F"/>
<path d="M14.6289 10.3156C14.5977 10.3675 14.5717 10.4194 14.5406 10.4714C14.2705 10.9804 14.0888 11.5258 14.0005 12.0868C14.2705 11.9361 14.5562 11.8115 14.8522 11.7076C14.873 11.6349 14.8937 11.5622 14.9197 11.4894C14.9976 11.2661 15.0911 11.0479 15.2001 10.835C15.2105 10.8194 15.2157 10.7986 15.2261 10.783C15.2417 10.7519 15.2573 10.7259 15.278 10.6947C15.3196 10.6168 15.3663 10.5441 15.4131 10.4714C15.6571 10.1026 15.948 9.78057 16.2751 9.51047C16.0362 9.37023 15.7818 9.25596 15.5169 9.17285C15.1794 9.50528 14.8782 9.88964 14.6289 10.3156Z" fill="#000E4F"/>
<path d="M14.1247 20.5158C14.1402 20.5261 14.1557 20.5365 14.1711 20.5468C14.1453 20.5313 14.1247 20.5106 14.0989 20.4951C14.104 20.5003 14.1144 20.5106 14.1247 20.5158Z" fill="#000E4F"/>
<path d="M13.9902 20.4121C14.0108 20.4275 14.0313 20.443 14.057 20.4635C14.0313 20.4481 14.0108 20.4275 13.9902 20.4121Z" fill="#000E4F"/>
<path d="M14.6394 20.8379C14.6599 20.8482 14.6805 20.8636 14.701 20.8739C14.6805 20.8585 14.6599 20.8482 14.6394 20.8379Z" fill="#000E4F"/>
<path d="M14.322 20.6502C14.3375 20.6605 14.3529 20.6656 14.3683 20.6759C14.3477 20.6605 14.3272 20.6502 14.3015 20.6348C14.3066 20.6399 14.3169 20.6451 14.322 20.6502Z" fill="#000E4F"/>
<path d="M13.9487 21.3047C13.9539 21.4345 13.9643 21.5592 13.9799 21.6891C14.0111 21.9643 14.0682 22.2396 14.1409 22.5045C14.2551 22.9045 14.4213 23.2888 14.629 23.6576C14.8783 24.0835 15.1795 24.4679 15.5223 24.8003C15.7871 24.7172 16.0364 24.603 16.2805 24.4627C15.9533 24.1926 15.6625 23.8706 15.4184 23.5018C15.3717 23.4291 15.3249 23.3564 15.2834 23.2785C15.2678 23.2473 15.2522 23.2213 15.2315 23.1902C15.2211 23.1746 15.2107 23.1538 15.2055 23.1382C15.0912 22.9253 14.9978 22.7071 14.9251 22.4838C14.9043 22.4214 14.8835 22.3591 14.8679 22.2968C14.8108 22.1046 14.7745 21.9124 14.7433 21.7202C14.5979 21.6631 14.4629 21.5956 14.3226 21.5228C14.1928 21.4553 14.0682 21.3826 13.9487 21.3047Z" fill="#000E4F"/>
<path d="M14.5821 20.8065C14.546 20.7858 14.5047 20.7651 14.4685 20.7393C14.5047 20.7651 14.546 20.7858 14.5821 20.8065Z" fill="#000E4F"/>
<path d="M24.1227 12.081C24.0344 11.5201 23.8527 10.9748 23.5878 10.471C23.1516 9.65036 22.492 8.93882 21.63 8.44022C20.7835 7.95201 19.8435 7.7183 18.8931 7.75465C18.5088 7.77023 18.1245 7.82736 17.7454 7.92604C17.5688 7.97279 17.3975 8.02992 17.2261 8.09224C17.4909 8.25325 17.7454 8.43503 17.9843 8.64278C18.3426 8.54929 18.7062 8.50255 19.0749 8.50255C19.158 8.50255 19.2463 8.50774 19.3293 8.50774C19.9889 8.5441 20.6432 8.73107 21.2509 9.08424C21.8585 9.43741 22.3518 9.91004 22.7102 10.4606C22.9231 10.7826 23.0893 11.1254 23.2087 11.4889C23.2295 11.5564 23.2503 11.624 23.271 11.6915C23.323 11.8733 23.3593 12.055 23.3853 12.2368C23.4268 12.5173 23.4424 12.7977 23.4268 13.0834C23.4164 13.2548 23.4009 13.421 23.3749 13.5872C23.3385 13.8105 23.2814 14.0287 23.2087 14.2468C23.1464 14.439 23.0633 14.6259 22.975 14.8129C22.9387 14.8908 22.8971 14.9687 22.8504 15.0414C22.8244 15.0882 22.7984 15.1349 22.7673 15.1765C22.6375 15.379 22.4972 15.5712 22.3414 15.7478C22.2895 15.8049 22.2376 15.862 22.1856 15.914C22.2428 16.2152 22.2791 16.5268 22.2843 16.8436C22.6323 16.5632 22.9439 16.236 23.2087 15.8672C23.3126 15.7218 23.4113 15.5712 23.4995 15.4154C23.7488 14.9843 23.9306 14.5272 24.0396 14.065C24.0812 13.8884 24.1175 13.7118 24.1383 13.5352C24.1799 13.2392 24.1902 12.938 24.1799 12.6419C24.1747 12.4653 24.1539 12.2732 24.1227 12.081Z" fill="#000E4F"/>
<path d="M24.0445 19.8821C23.9302 19.4199 23.7536 18.9681 23.5044 18.5318C23.4161 18.376 23.3174 18.2254 23.2135 18.0799C22.9487 17.7112 22.6371 17.384 22.2891 17.1035C22.2839 17.4203 22.2476 17.732 22.1905 18.0332C22.2424 18.0851 22.2943 18.1423 22.3463 18.1994C22.4605 18.3292 22.5696 18.4695 22.6682 18.6097C22.7046 18.6616 22.7409 18.7136 22.7721 18.7707C22.7981 18.8174 22.8292 18.859 22.8552 18.9057C22.8967 18.9836 22.9383 19.0563 22.9798 19.1343C23.1772 19.529 23.3122 19.9445 23.3797 20.36C23.4057 20.5262 23.4265 20.6976 23.4368 20.8638C23.4524 21.1494 23.4368 21.4299 23.3953 21.7103C23.3693 21.8973 23.3278 22.0791 23.281 22.2557C23.1616 22.6919 22.9695 23.1074 22.7202 23.4866C22.3566 24.0371 21.8685 24.5149 21.2609 24.8629C20.6533 25.2161 19.9937 25.4031 19.3394 25.4394C19.2563 25.4446 19.168 25.4446 19.0849 25.4446C18.7162 25.4446 18.3474 25.3979 17.9943 25.3044C17.7554 25.5121 17.5009 25.6939 17.2361 25.8549C17.4023 25.9172 17.5788 25.9744 17.7554 26.0211C18.1345 26.125 18.5188 26.1821 18.9031 26.1925C18.9654 26.1925 19.0278 26.1977 19.0901 26.1977C19.9781 26.1977 20.8558 25.964 21.64 25.5069C22.5021 25.0083 23.1616 24.2968 23.5978 23.4762C23.8627 22.9724 24.0445 22.4271 24.1327 21.8661C24.1639 21.674 24.1847 21.4818 24.1899 21.2845C24.2003 20.9884 24.1899 20.6872 24.1483 20.3911C24.1172 20.2353 24.086 20.0587 24.0445 19.8821Z" fill="#000E4F"/>
<path d="M10.1786 18.0856C10.0747 18.231 9.97604 18.3816 9.88776 18.5374C9.63848 18.9686 9.45671 19.4256 9.34766 19.8879C9.55019 20.0697 9.7787 20.2359 10.0176 20.371C10.0903 19.9503 10.2201 19.5399 10.4175 19.1452C10.4538 19.0673 10.4954 18.9893 10.5421 18.9166C10.5681 18.8699 10.594 18.8231 10.6252 18.7816C10.6616 18.7296 10.6927 18.6725 10.7291 18.6206C10.8277 18.4751 10.9368 18.3401 11.051 18.2102C11.103 18.1531 11.1549 18.0959 11.2068 18.044C11.1497 17.7427 11.1134 17.4311 11.1082 17.1143C10.755 17.3895 10.4434 17.7168 10.1786 18.0856Z" fill="#000E4F"/>
<path d="M17.859 24.8007C18.207 24.4683 18.5082 24.084 18.7523 23.6581C18.9652 23.2893 19.1262 22.905 19.2404 22.5051C19.3183 22.235 19.3703 21.965 19.4014 21.6897C19.417 21.565 19.4274 21.4352 19.4326 21.3105C19.3131 21.3885 19.1885 21.4612 19.0587 21.5287C18.9236 21.6014 18.7834 21.6637 18.638 21.726C18.612 21.9182 18.5705 22.1156 18.5134 22.3025C18.4926 22.3649 18.477 22.4272 18.4562 22.4895C18.3783 22.7128 18.2849 22.931 18.1758 23.1439C18.1498 23.1907 18.1239 23.2374 18.0979 23.2842C18.0564 23.3621 18.0096 23.4348 17.9629 23.5075C17.7188 23.8762 17.428 24.1982 17.1008 24.4683C16.971 24.5774 16.8308 24.6761 16.6905 24.7696C16.4516 24.9254 16.1972 25.0552 15.9323 25.1591C15.7609 25.2266 15.5844 25.2837 15.4026 25.3305C14.9664 25.4447 14.5094 25.4863 14.0575 25.4603C13.398 25.424 12.7436 25.237 12.136 24.8838C11.5284 24.5306 11.0351 24.058 10.6767 23.5075C10.4275 23.1283 10.2405 22.7128 10.1159 22.2766C9.81984 22.1727 9.53421 22.0481 9.26416 21.8974C9.35245 22.4584 9.53421 23.0037 9.79907 23.5075C10.2353 24.3281 10.8948 25.0396 11.7569 25.5382C12.5463 25.9953 13.424 26.229 14.3068 26.229C14.3691 26.229 14.4315 26.229 14.4938 26.2238C14.8781 26.2082 15.2624 26.1511 15.6415 26.0524C15.8181 26.0057 15.9894 25.9485 16.1608 25.8862C16.3426 25.8187 16.5192 25.7356 16.6905 25.6473C16.9606 25.5071 17.2099 25.3461 17.4488 25.1643C17.5942 25.0448 17.7292 24.9254 17.859 24.8007Z" fill="#000E4F"/>
<path d="M11.9494 11.8623C11.4509 11.8623 10.9679 11.935 10.5109 12.0701C10.4538 12.3402 10.4226 12.6155 10.4278 12.8907C10.8225 12.7401 11.2483 12.6518 11.6898 12.6258C11.7781 12.6206 11.8611 12.6155 11.9494 12.6155C11.9858 12.6155 12.0169 12.6155 12.0533 12.6155C12.0741 12.6155 12.0897 12.6155 12.1104 12.6155C12.3545 12.6258 12.5882 12.6518 12.8219 12.6986C12.8946 12.7141 12.9725 12.7297 13.0452 12.7505C13.2789 12.5479 13.5334 12.3661 13.7982 12.1999C13.2218 11.987 12.5986 11.8623 11.9494 11.8623Z" fill="#000E4F"/>
<path d="M10.5107 21.9027C10.9677 22.0377 11.4507 22.1104 11.9492 22.1104C12.0064 22.1104 12.0687 22.1104 12.1258 22.1052C12.614 22.0897 13.0814 22.0066 13.5228 21.8611C13.4864 21.6014 13.4709 21.3418 13.4709 21.0821C13.2579 21.16 13.0398 21.2223 12.8165 21.269C12.588 21.3158 12.3491 21.3418 12.105 21.3521C12.0531 21.3521 12.0012 21.3573 11.944 21.3573C11.8558 21.3573 11.7675 21.3521 11.6844 21.347C11.243 21.321 10.8171 21.2275 10.4224 21.0821C10.2614 21.0249 10.1056 20.9522 9.95503 20.8743C9.70056 20.7445 9.46167 20.5887 9.24355 20.4173C9.09814 20.303 8.95792 20.1784 8.82809 20.0433C8.5113 19.7213 8.24644 19.3526 8.0439 18.9423C7.74789 18.3554 7.5817 17.6906 7.5817 16.9894C7.5817 16.2883 7.74789 15.6235 8.0439 15.0366C8.24644 14.6315 8.51649 14.2575 8.82809 13.9355C8.77096 13.6291 8.73461 13.3175 8.72942 13.0059C8.28799 13.3642 7.90888 13.7953 7.60248 14.2783C7.10912 15.0678 6.82349 15.9922 6.82349 16.9894C6.82349 17.9866 7.10912 18.9163 7.60248 19.7005C7.90369 20.1836 8.28799 20.6146 8.72942 20.973C8.88002 21.0977 9.04101 21.2119 9.202 21.3158C9.45128 21.4768 9.71614 21.6118 9.99657 21.7313C10.168 21.7936 10.3393 21.8507 10.5107 21.9027Z" fill="#000E4F"/>
<path d="M9.34771 14.0914C9.46196 14.5536 9.63853 15.0055 9.88781 15.4417C9.9761 15.5975 10.0748 15.7482 10.1786 15.8936C10.4435 16.2623 10.7551 16.5895 11.103 16.87C11.1082 16.5532 11.1446 16.2416 11.2017 15.9403C11.1498 15.8884 11.0978 15.8313 11.0459 15.7741C10.8901 15.5975 10.7499 15.4054 10.6201 15.2028C10.5941 15.1561 10.5629 15.1145 10.537 15.0678C10.4954 14.9899 10.4539 14.9172 10.4123 14.8393C10.3189 14.6523 10.241 14.4653 10.1786 14.2732C10.1059 14.055 10.0488 13.8369 10.0124 13.6136C9.98648 13.4474 9.96571 13.276 9.95532 13.1098C9.93974 12.8241 9.95532 12.5436 9.99687 12.2632C10.0228 12.0762 10.0644 11.8944 10.1111 11.7178C10.1319 11.6503 10.1527 11.5828 10.1734 11.5153C10.2929 11.1569 10.4591 10.809 10.672 10.4869C11.0355 9.93641 11.5237 9.45859 12.1313 9.11061C12.7389 8.75744 13.3985 8.57046 14.0528 8.53411C14.1359 8.52891 14.2242 8.52891 14.3073 8.52891C14.676 8.52891 15.0447 8.57566 15.3979 8.66914C15.5796 8.71589 15.7562 8.77302 15.9276 8.84054C16.1924 8.94441 16.4469 9.07425 16.6858 9.23006C16.826 9.32355 16.9662 9.42223 17.0961 9.5313C17.4232 9.80137 17.7141 10.1234 17.9581 10.4921C18.0049 10.5648 18.0516 10.6376 18.0932 10.7155C18.1191 10.7622 18.1451 10.809 18.1711 10.8557C18.2853 11.0686 18.3788 11.2868 18.4515 11.5101C18.4775 11.5828 18.4982 11.6555 18.519 11.7282C18.815 11.8321 19.1007 11.9568 19.3707 12.1074C19.2824 11.5517 19.1007 11.0063 18.8306 10.4921C18.8047 10.4402 18.7735 10.3883 18.7423 10.3363C18.4931 9.91044 18.1918 9.5261 17.8491 9.19371C17.7193 9.06906 17.5842 8.9496 17.4388 8.84054C17.1999 8.65876 16.9507 8.49775 16.6806 8.35752C16.5092 8.26923 16.3327 8.19132 16.1509 8.11861C15.9847 8.05629 15.8081 7.99915 15.6316 7.95241C15.2525 7.84854 14.8682 7.79141 14.4839 7.78102C13.5335 7.74466 12.5883 7.97838 11.747 8.46659C10.8849 8.96518 10.2254 9.67672 9.78914 10.4973C9.52428 11.0011 9.34252 11.5465 9.25423 12.1074C9.22307 12.2995 9.2023 12.4917 9.19711 12.6891C9.18672 12.9851 9.19711 13.2863 9.23865 13.5824C9.26981 13.7382 9.30097 13.9148 9.34771 14.0914Z" fill="#000E4F"/>
<path d="M15.5893 21.9849C15.5322 21.9745 15.4804 21.9589 15.4233 21.9434C15.4804 21.9589 15.5374 21.9745 15.5893 21.9849Z" fill="#000E4F"/>
<path d="M15.2527 21.9023C15.2888 21.9127 15.325 21.923 15.3611 21.9334C15.325 21.923 15.2888 21.9127 15.2527 21.9023Z" fill="#000E4F"/>
<path d="M17.9576 21.9492C17.9057 21.9648 17.8539 21.9752 17.802 21.9856C17.8539 21.9752 17.9057 21.9648 17.9576 21.9492Z" fill="#000E4F"/>
<path d="M18.1336 21.9023C18.1026 21.9127 18.0664 21.9179 18.0303 21.9282C18.0664 21.9179 18.1026 21.9127 18.1336 21.9023Z" fill="#000E4F"/>
<path d="M15.6106 21.9912C15.6729 22.0068 15.7351 22.0172 15.8026 22.0328C15.8648 22.0432 15.9271 22.0535 15.9945 22.0639C16.0153 22.0691 16.0412 22.0691 16.062 22.0691C16.0412 22.0639 16.0153 22.0639 15.9893 22.0587C15.8648 22.0432 15.7351 22.0172 15.6106 21.9912Z" fill="#000E4F"/>
<path d="M17.0597 22.0948C16.9403 22.1052 16.8208 22.1104 16.6962 22.1104C16.5508 22.1104 16.4054 22.1052 16.2651 22.0896C16.2859 22.0896 16.3119 22.0948 16.3326 22.0948C16.4521 22.1052 16.5715 22.1104 16.6962 22.1104C16.9351 22.1104 17.1688 22.0948 17.3973 22.0636C17.4596 22.0532 17.5271 22.0428 17.5894 22.0325C17.6465 22.0221 17.7089 22.0065 17.766 21.9961C17.6465 22.0221 17.5219 22.0428 17.3973 22.0584C17.283 22.074 17.174 22.0844 17.0597 22.0948Z" fill="#000E4F"/>
<path d="M12.6554 20.1316C12.5827 20.0381 12.5152 19.9446 12.4529 19.8511C12.4373 19.8303 12.4269 19.8095 12.4165 19.7939C12.4892 19.9134 12.5723 20.0277 12.6554 20.1316C12.8216 20.3445 12.9982 20.5419 13.1955 20.7237C13.2215 20.7497 13.2474 20.7704 13.2786 20.7964C13.2526 20.7704 13.2267 20.7497 13.1955 20.7237C13.0033 20.5419 12.8216 20.3445 12.6554 20.1316Z" fill="#000E4F"/>
<path d="M20.03 13.104C20.0197 13.0936 20.0094 13.0885 19.999 13.0781C20.0352 13.1092 20.0713 13.1454 20.1127 13.1764C20.0817 13.1506 20.0558 13.1247 20.03 13.104Z" fill="#000E4F"/>
<path d="M21.1626 14.4863C21.1936 14.5433 21.2247 14.6055 21.2557 14.6625C21.2247 14.6055 21.1936 14.5485 21.1626 14.4863Z" fill="#000E4F"/>
<path d="M12.3334 16.7236C12.3334 16.7392 12.3334 16.7496 12.3282 16.7652C12.323 16.8379 12.323 16.9106 12.323 16.9833C12.323 16.9106 12.323 16.8379 12.3282 16.7652C12.3334 16.7496 12.3334 16.7392 12.3334 16.7236Z" fill="#000E4F"/>
<path d="M13.3563 13.104C13.3305 13.1299 13.3047 13.1506 13.2737 13.1764C13.3098 13.1454 13.346 13.1092 13.3873 13.0781C13.377 13.0833 13.3667 13.0936 13.3563 13.104Z" fill="#000E4F"/>
<path d="M20.9751 14.1797C21.0166 14.2472 21.0634 14.3147 21.0997 14.3822C21.0582 14.3147 21.0166 14.2472 20.9751 14.1797Z" fill="#000E4F"/>
<path d="M12.656 18.6465C12.6609 18.6562 12.6609 18.6611 12.6657 18.6709C12.6657 18.666 12.6609 18.666 12.6609 18.6611C12.6609 18.6562 12.656 18.6514 12.656 18.6465Z" fill="#000E4F"/>
<path d="M12.3341 17.2746C12.3341 17.3111 12.3392 17.3423 12.3444 17.3787C12.3444 17.3995 12.3496 17.4203 12.3496 17.4411C12.3392 17.3631 12.3341 17.2851 12.3289 17.207C12.3341 17.233 12.3341 17.2538 12.3341 17.2746Z" fill="#000E4F"/>
<path d="M12.2822 14.3926C12.3289 14.3147 12.3756 14.242 12.4223 14.1641C12.3756 14.2368 12.3289 14.3147 12.2822 14.3926Z" fill="#000E4F"/>
<path d="M11.7942 15.5039C11.8046 15.4728 11.8149 15.4364 11.8253 15.4053C11.8149 15.4416 11.8046 15.4728 11.7942 15.5039Z" fill="#000E4F"/>
<path d="M12.5828 18.4589C12.5828 18.4537 12.5776 18.4485 12.5776 18.4434C12.5931 18.4796 12.6035 18.521 12.619 18.5572C12.619 18.552 12.6138 18.5469 12.6138 18.5417C12.6035 18.5158 12.5931 18.4848 12.5828 18.4589Z" fill="#000E4F"/>
<path d="M12.5202 18.2662C12.515 18.2455 12.5047 18.2248 12.4995 18.2041C12.515 18.2558 12.5305 18.3076 12.546 18.3542C12.5409 18.3386 12.5357 18.3231 12.5305 18.3076C12.5305 18.2972 12.5253 18.2817 12.5202 18.2662Z" fill="#000E4F"/>
<path d="M12.1204 14.6937C12.1567 14.621 12.1982 14.5483 12.2345 14.4756C12.193 14.5431 12.1567 14.6158 12.1204 14.6937Z" fill="#000E4F"/>
<path d="M13.3875 20.8955C13.3978 20.9059 13.4081 20.911 13.4184 20.9214C13.4339 20.9369 13.4546 20.9524 13.4752 20.9679C13.4597 20.9524 13.4391 20.9369 13.4184 20.9265C13.4081 20.911 13.3978 20.9059 13.3875 20.8955Z" fill="#000E4F"/>
<path d="M21.5514 18.6144C21.5566 18.5988 21.5618 18.5833 21.567 18.5625C21.5566 18.5936 21.5463 18.6248 21.5359 18.6559C21.5411 18.6456 21.5463 18.63 21.5514 18.6144Z" fill="#000E4F"/>
<path d="M21.6294 18.3555C21.619 18.3917 21.6087 18.4279 21.5984 18.4641C21.6087 18.4331 21.619 18.3969 21.6294 18.3555Z" fill="#000E4F"/>
<path d="M21.6292 15.6133C21.6395 15.6599 21.655 15.7064 21.6653 15.753C21.655 15.7064 21.6395 15.6599 21.6292 15.6133Z" fill="#000E4F"/>
<path d="M20.7316 20.1316C20.5654 20.3394 20.3888 20.5367 20.1915 20.7185C20.1655 20.7445 20.1396 20.7653 20.1084 20.7913C20.1344 20.7653 20.1655 20.7445 20.1915 20.7185C20.3888 20.5419 20.5654 20.3446 20.7316 20.1316C20.8147 20.0277 20.8926 19.9186 20.9653 19.8096C20.9549 19.8252 20.9445 19.8407 20.9393 19.8511C20.8718 19.9498 20.8043 20.0433 20.7316 20.1316Z" fill="#000E4F"/>
<path d="M21.1512 19.498C21.1357 19.5239 21.1202 19.5549 21.1047 19.5808C21.1202 19.5549 21.1357 19.5291 21.1512 19.498Z" fill="#000E4F"/>
<path d="M21.3013 19.2119C21.2911 19.2325 21.2808 19.2582 21.2654 19.2788C21.2808 19.2582 21.2911 19.2325 21.3013 19.2119Z" fill="#000E4F"/>
<path d="M21.313 14.7773C21.3493 14.8552 21.3908 14.9383 21.4219 15.0214C21.3856 14.9383 21.3493 14.8552 21.313 14.7773Z" fill="#000E4F"/>
<path d="M13.2588 19.681L13.2527 19.6748L13.2588 19.681Z" fill="#000E4F"/>
<path d="M21.5669 15.4053C21.5773 15.4364 21.5876 15.4728 21.598 15.5091C21.5876 15.4728 21.5773 15.4364 21.5669 15.4053Z" fill="#000E4F"/>
<path d="M21.7694 17.6646C21.759 17.7321 21.7486 17.7944 21.7383 17.8568C21.7227 17.9554 21.7019 18.0541 21.6812 18.1476C21.676 18.1736 21.6708 18.1944 21.6604 18.2204C21.6656 18.1944 21.6708 18.1736 21.6812 18.1476C21.7019 18.0489 21.7227 17.9554 21.7383 17.8568C21.7538 17.7944 21.7642 17.7269 21.7694 17.6646C21.7902 17.5139 21.8006 17.3633 21.8109 17.2074C21.8161 17.1347 21.8161 17.062 21.8161 16.9893C21.8161 17.062 21.8161 17.1347 21.8109 17.2074C21.8057 17.3581 21.7902 17.5087 21.7694 17.6646Z" fill="#000E4F"/>
<path d="M21.448 15.0889C21.4791 15.1616 21.5051 15.2395 21.531 15.3122C21.5051 15.2343 21.4791 15.1616 21.448 15.0889Z" fill="#000E4F"/>
<path d="M11.7258 15.753C11.7362 15.7064 11.7465 15.6599 11.762 15.6133C11.7465 15.6599 11.7362 15.7064 11.7258 15.753Z" fill="#000E4F"/>
<path d="M19.9158 20.9627C19.9158 20.9627 19.9158 20.9679 19.9158 20.9627C19.9364 20.9524 19.9519 20.9369 19.9726 20.9214C19.9829 20.911 19.9932 20.9059 20.0035 20.8955C19.9932 20.9059 19.9829 20.911 19.9726 20.9214C19.9519 20.9369 19.9313 20.9524 19.9158 20.9627Z" fill="#000E4F"/>
<path d="M11.84 18.6151C11.8452 18.6307 11.8504 18.6462 11.8556 18.6618C11.8452 18.6307 11.8348 18.5995 11.8245 18.5684C11.8296 18.5839 11.8348 18.5995 11.84 18.6151Z" fill="#000E4F"/>
<path d="M12.1305 19.3049C12.1098 19.2687 12.0944 19.2325 12.0789 19.1963C12.0944 19.2325 12.115 19.2687 12.1305 19.3049Z" fill="#000E4F"/>
<path d="M11.6479 17.8568C11.6375 17.7944 11.6272 17.7269 11.6168 17.6646C11.596 17.5139 11.5856 17.3581 11.5753 17.2074C11.5701 17.1347 11.5701 17.062 11.5701 16.9893C11.5701 17.062 11.5701 17.1347 11.5753 17.2074C11.5804 17.3633 11.596 17.5139 11.6168 17.6646C11.6272 17.7269 11.6375 17.7944 11.6479 17.8568C11.6635 17.9554 11.6843 18.0541 11.705 18.1476C11.7102 18.1684 11.7154 18.1944 11.7206 18.2152C11.7154 18.1892 11.7102 18.1684 11.705 18.1425C11.6843 18.0541 11.6635 17.9554 11.6479 17.8568Z" fill="#000E4F"/>
<path d="M12.0839 14.7607C12.0371 14.8594 11.9904 14.9581 11.9489 15.062C11.9126 15.1451 11.8866 15.2283 11.8555 15.3166C11.8866 15.2334 11.9178 15.1503 11.9489 15.0672C11.9904 14.9581 12.0371 14.8594 12.0839 14.7607Z" fill="#000E4F"/>
<path d="M13.4919 13.3537C13.4919 13.3745 13.4971 13.4004 13.4971 13.4212C13.5127 13.5874 13.5386 13.7588 13.5698 13.925C14.3644 13.1148 15.4705 12.6109 16.7013 12.6109C17.9114 12.6109 19.0175 13.0992 19.8173 13.8887C19.8485 13.7329 19.8692 13.577 19.8848 13.4212C19.8848 13.4004 19.89 13.3745 19.89 13.3537C19.9004 13.2654 19.9056 13.1719 19.9056 13.0836C19.9056 13.0576 19.9056 13.0317 19.9056 13.0109C19.8744 12.9849 19.8433 12.9589 19.8069 12.933C19.6875 12.8395 19.5576 12.7512 19.433 12.6681C19.3136 12.5901 19.1837 12.5174 19.0591 12.4499C18.9241 12.3772 18.7838 12.3149 18.6384 12.2525C18.5761 12.2266 18.519 12.2058 18.4567 12.1798C18.3632 12.1435 18.2697 12.1123 18.1762 12.0863C17.9218 12.0084 17.6621 11.9513 17.392 11.9149C17.1635 11.8837 16.9298 11.8682 16.691 11.8682C16.5663 11.8682 16.4469 11.8734 16.3274 11.8837C16.2132 11.8941 16.0989 11.9045 15.9899 11.9201C15.7198 11.9565 15.4601 12.0136 15.2057 12.0915C15.133 12.1123 15.0655 12.1383 14.9979 12.159C14.972 12.1694 14.9512 12.1746 14.9252 12.185C14.8629 12.2058 14.8006 12.2318 14.7435 12.2577C14.5981 12.3149 14.4578 12.3824 14.3228 12.4551C14.193 12.5226 14.0684 12.5953 13.9489 12.6733C13.8191 12.7564 13.6944 12.8447 13.575 12.9382C13.5438 12.9641 13.5127 12.9901 13.4763 13.0161C13.4763 13.042 13.4763 13.068 13.4763 13.094C13.4815 13.1719 13.4867 13.2654 13.4919 13.3537Z" fill="#000E4F"/>
<path d="M12.2863 19.5911C12.2657 19.5549 12.245 19.5186 12.2244 19.4824C12.245 19.5186 12.2657 19.5549 12.2863 19.5911Z" fill="#000E4F"/>
<path d="M19.4434 21.3054C19.5732 21.2223 19.6978 21.134 19.8173 21.0405C19.8484 21.0146 19.8796 20.9886 19.916 20.9626C19.9315 20.947 19.9523 20.9315 19.9731 20.9211C19.9835 20.9107 19.9939 20.9055 20.0042 20.8951C20.0146 20.8847 20.025 20.8795 20.0354 20.8691C20.0614 20.8432 20.0873 20.8224 20.1185 20.7964C20.1445 20.7705 20.1704 20.7497 20.2016 20.7237C20.3937 20.5419 20.5755 20.3446 20.7417 20.1368C20.8144 20.0433 20.8819 19.9498 20.9442 19.8564C20.9546 19.8408 20.965 19.8252 20.9702 19.8148C21.0221 19.7421 21.0689 19.6642 21.1104 19.5863C21.126 19.5603 21.1416 19.5292 21.1572 19.5032C21.1987 19.4305 21.2351 19.3578 21.2714 19.2851C21.2818 19.2643 21.2974 19.2383 21.3078 19.2175C21.3545 19.1189 21.4012 19.0202 21.4428 18.9163C21.4791 18.8332 21.5051 18.7501 21.5363 18.6618C21.5466 18.6306 21.557 18.5995 21.5674 18.5683C21.5778 18.5372 21.5882 18.5008 21.5986 18.4696C21.609 18.4333 21.6194 18.3969 21.6297 18.3606C21.6401 18.3138 21.6557 18.2671 21.6661 18.2255C21.6713 18.1996 21.6765 18.1788 21.6869 18.1528C21.7076 18.0541 21.7284 17.9607 21.744 17.862C21.7544 17.7997 21.7648 17.7321 21.7752 17.6698C21.7959 17.5192 21.8063 17.3634 21.8167 17.2128C21.8219 17.1401 21.8219 17.0673 21.8219 16.9946C21.8219 16.9219 21.8219 16.8492 21.8167 16.7765C21.8115 16.6207 21.7959 16.4701 21.7752 16.3194C21.7648 16.2519 21.7544 16.1896 21.744 16.1273C21.7284 16.0286 21.7076 15.9299 21.6869 15.8364C21.6817 15.8105 21.6765 15.7897 21.6713 15.7637C21.6609 15.717 21.6505 15.6702 21.6349 15.6235C21.6245 15.5871 21.6142 15.5508 21.6038 15.5144C21.5934 15.4781 21.583 15.4469 21.5726 15.4105C21.5674 15.395 21.5622 15.3794 21.557 15.3638C21.5518 15.3482 21.5466 15.3326 21.5415 15.3171C21.5155 15.2443 21.4895 15.1664 21.4584 15.0937C21.4532 15.0833 21.4532 15.073 21.448 15.0678C21.4428 15.0522 21.4376 15.0418 21.4324 15.0262C21.396 14.9431 21.3597 14.86 21.3233 14.7821C21.3078 14.7458 21.287 14.7094 21.2714 14.673C21.2402 14.6107 21.2091 14.5536 21.1779 14.4965C21.1572 14.4601 21.1364 14.4237 21.1156 14.3874C21.0741 14.3199 21.0325 14.2523 20.991 14.1848C20.9131 14.0706 20.8352 13.9511 20.7469 13.842C20.5807 13.6343 20.4041 13.4369 20.2068 13.2552C20.1808 13.2292 20.1549 13.2084 20.1237 13.1824C20.0873 13.1513 20.051 13.1149 20.0094 13.0838C19.9991 13.0734 19.9887 13.0682 19.9783 13.0578C19.9627 13.0422 19.9419 13.0266 19.9212 13.0111C19.9212 13.037 19.9212 13.063 19.9212 13.0838C19.916 13.1721 19.9108 13.2655 19.9056 13.3538C19.9056 13.3746 19.9004 13.4006 19.9004 13.4214C19.8848 13.5772 19.864 13.733 19.8329 13.8888C20.6274 14.6782 21.1156 15.7741 21.0948 16.9842C21.0429 19.4824 19.1162 21.3833 16.7221 21.3573C16.1768 21.3521 15.6523 21.2483 15.1693 21.0665C15.1433 21.0561 15.1122 21.0457 15.0862 21.0353C15.0654 21.0301 15.0499 21.0198 15.0291 21.0094C15.0187 21.0042 15.0083 20.999 14.9979 20.9938C14.9772 20.9834 14.9564 20.9782 14.9356 20.9678C14.9097 20.9574 14.8837 20.9418 14.8577 20.9315C14.8318 20.9211 14.8058 20.9107 14.785 20.8951C14.759 20.8847 14.7383 20.8743 14.7123 20.8587C14.6915 20.8484 14.6708 20.8328 14.65 20.8224C14.6292 20.812 14.6136 20.8016 14.5929 20.7912C14.5565 20.7705 14.515 20.7497 14.4786 20.7237C14.4423 20.7029 14.4111 20.6822 14.3747 20.6614C14.3592 20.651 14.3436 20.6458 14.328 20.6354C14.3228 20.6302 14.3124 20.625 14.3072 20.6198C14.2657 20.5887 14.2189 20.5627 14.1774 20.5315C14.1618 20.5212 14.1462 20.5108 14.1307 20.5004C14.1203 20.4952 14.1151 20.49 14.1047 20.4848C14.0891 20.4744 14.0787 20.464 14.0631 20.4536C14.0424 20.4381 14.0164 20.4225 13.9956 20.4017C13.9801 20.3913 13.9645 20.3757 13.9489 20.3653C13.9333 20.355 13.9177 20.3394 13.9022 20.329C13.897 20.3238 13.8918 20.3186 13.8866 20.3134C13.8762 20.303 13.8658 20.2926 13.8502 20.2822C13.8087 20.2459 13.7723 20.2147 13.7308 20.1784C13.7256 20.1732 13.7152 20.1628 13.71 20.1576C13.6633 20.116 13.6217 20.0745 13.575 20.0278C13.575 20.0278 13.5698 20.0226 13.5698 20.0174C13.4607 19.9031 13.3569 19.7888 13.2634 19.6642L13.2582 19.659C13.0557 19.3993 12.8791 19.1189 12.7389 18.8176C12.7389 18.8124 12.7337 18.8124 12.7337 18.8072C12.7233 18.7916 12.7181 18.7709 12.7077 18.7553C12.6921 18.7241 12.6817 18.693 12.6662 18.6618C12.661 18.6514 12.661 18.6462 12.6558 18.6358C12.6454 18.6047 12.635 18.5787 12.6194 18.5475C12.6038 18.5112 12.5883 18.4696 12.5779 18.4333C12.5675 18.4073 12.5571 18.3762 12.5467 18.3502C12.5311 18.2982 12.5156 18.2463 12.5 18.1996C12.4948 18.184 12.4896 18.1684 12.4844 18.1528C12.448 18.0178 12.4169 17.8828 12.3909 17.7425C12.3805 17.6958 12.3753 17.649 12.3701 17.6023C12.3598 17.5504 12.3546 17.4932 12.3494 17.4413V17.4361C12.3494 17.4153 12.3442 17.3945 12.3442 17.3738C12.339 17.3374 12.339 17.3062 12.3338 17.2699C12.3338 17.2491 12.3286 17.2283 12.3286 17.2024V17.1972C12.3234 17.1245 12.3234 17.0518 12.3234 16.979C12.3234 16.9063 12.3234 16.8336 12.3286 16.7609C12.3286 16.7453 12.3286 16.7349 12.3338 16.7194C12.3338 16.7142 12.3338 16.7038 12.3338 16.6986C12.3338 16.6622 12.339 16.6259 12.3442 16.5947C12.3442 16.5791 12.3494 16.5584 12.3494 16.5376V16.5324C12.3494 16.5272 12.3494 16.522 12.3494 16.5168C12.3546 16.4753 12.3598 16.4441 12.3649 16.4077C12.4896 15.4469 12.9258 14.5847 13.5698 13.9251C13.5386 13.7589 13.5127 13.5876 13.4971 13.4214C13.4971 13.4006 13.4919 13.3746 13.4919 13.3538C13.4815 13.2655 13.4763 13.1721 13.4763 13.0838C13.4763 13.0578 13.4763 13.0318 13.4763 13.0059C13.4555 13.0214 13.44 13.037 13.4192 13.0526C13.4088 13.063 13.3984 13.0682 13.388 13.0786C13.3517 13.1097 13.3153 13.1461 13.2738 13.1773C13.2478 13.2032 13.2166 13.224 13.1907 13.25C12.9985 13.4317 12.8168 13.6291 12.6506 13.8369C12.5675 13.9407 12.4896 14.0498 12.4169 14.1641C12.3701 14.2368 12.3182 14.3147 12.2767 14.3926C12.2611 14.4185 12.2455 14.4497 12.2299 14.4757C12.1884 14.5484 12.152 14.6211 12.1157 14.6938C12.1053 14.7146 12.0897 14.7406 12.0793 14.7613C12.0326 14.86 11.9858 14.9587 11.9443 15.0626C11.9131 15.1457 11.882 15.2288 11.8508 15.3119C11.8456 15.3274 11.8404 15.343 11.8352 15.3586C11.83 15.3742 11.8248 15.3898 11.8197 15.4105C11.8093 15.4417 11.7989 15.4781 11.7885 15.5092C11.7781 15.5456 11.7677 15.5819 11.7573 15.6183C11.7469 15.665 11.7314 15.7118 11.721 15.7585C11.7158 15.7845 11.7106 15.8053 11.7002 15.8312C11.6794 15.9299 11.6587 16.0234 11.6431 16.1221C11.6327 16.1844 11.6223 16.2519 11.6119 16.3143C11.5912 16.4649 11.5808 16.6207 11.5704 16.7713C11.5652 16.844 11.5652 16.9167 11.5652 16.9894C11.5652 17.0621 11.5652 17.1349 11.5704 17.2076C11.5756 17.3634 11.5912 17.514 11.6119 17.6646C11.6223 17.7321 11.6327 17.7945 11.6431 17.8568C11.6587 17.9555 11.6794 18.0541 11.7002 18.1476C11.7054 18.1736 11.7106 18.1944 11.7158 18.2203C11.7262 18.2671 11.7366 18.3138 11.7521 18.3606C11.7625 18.3969 11.7729 18.4333 11.7833 18.4696C11.7937 18.506 11.8041 18.5372 11.8145 18.5735C11.8248 18.6047 11.8352 18.6358 11.8456 18.667C11.8716 18.7397 11.8976 18.8176 11.9287 18.8903C11.9339 18.9007 11.9339 18.9111 11.9391 18.9163C11.9443 18.9319 11.9495 18.9423 11.9547 18.9578C11.991 19.0409 12.0274 19.124 12.0637 19.202C12.0793 19.2383 12.1001 19.2747 12.1157 19.311C12.1468 19.3733 12.178 19.4305 12.2092 19.4876C12.2299 19.524 12.2507 19.5603 12.2715 19.5967C12.313 19.6642 12.3546 19.7317 12.4013 19.7992C12.4117 19.82 12.4273 19.8408 12.4377 19.8564C12.5052 19.9498 12.5727 20.0485 12.6402 20.1368C12.8064 20.3446 12.9829 20.5419 13.1803 20.7237C13.2063 20.7497 13.2322 20.7705 13.2634 20.7964C13.2894 20.8224 13.3153 20.8484 13.3465 20.8691C13.3569 20.8795 13.3672 20.8847 13.3776 20.8951C13.388 20.9055 13.3984 20.9107 13.4088 20.9211C13.4244 20.9367 13.4451 20.9522 13.4659 20.9626C13.4971 20.9886 13.5282 21.0146 13.5646 21.0405C13.684 21.134 13.8087 21.2223 13.9385 21.3054C14.058 21.3833 14.1878 21.456 14.3124 21.5235C14.4474 21.5963 14.5877 21.6586 14.7331 21.7209C14.7954 21.7469 14.8525 21.7676 14.9148 21.7936C15.0083 21.83 15.1018 21.8611 15.1953 21.8871C15.2109 21.8923 15.2264 21.8975 15.242 21.8975C15.2784 21.9079 15.3147 21.9183 15.3511 21.9286C15.3719 21.9338 15.3926 21.939 15.4134 21.9442C15.4705 21.9598 15.5225 21.9702 15.5796 21.9858C15.5848 21.9858 15.5952 21.991 15.6004 21.991C15.725 22.0169 15.8548 22.0429 15.9795 22.0585C16.0002 22.0637 16.0262 22.0637 16.0522 22.0689C16.1197 22.0793 16.1872 22.0845 16.2495 22.0897C16.3897 22.1 16.5351 22.1104 16.6806 22.1104C16.8052 22.1104 16.9246 22.1052 17.0441 22.0948C17.1583 22.0845 17.2726 22.0741 17.3816 22.0585C17.5063 22.0429 17.6257 22.0169 17.7504 21.9962C17.7608 21.991 17.7763 21.991 17.7867 21.991C17.8387 21.9806 17.8906 21.965 17.9425 21.9546C17.9685 21.9494 17.9945 21.939 18.0204 21.9338C18.0568 21.9235 18.0879 21.9131 18.1243 21.9027C18.1399 21.8975 18.1554 21.8923 18.171 21.8923C18.2437 21.8715 18.3112 21.8456 18.3788 21.8248C18.4047 21.8144 18.4255 21.8092 18.4515 21.7988C18.5138 21.778 18.5761 21.7521 18.6332 21.7261C18.7786 21.669 18.9189 21.6014 19.0539 21.5287C19.1941 21.456 19.3187 21.3833 19.4434 21.3054Z" fill="#000E4F"/>
<path d="M19.0019 16.0644C19.0019 16.8071 18.7526 18.09 16.7532 19.1547C14.6032 18.0173 14.4578 16.6098 14.4785 16.1891V16.1371C14.5045 15.571 14.9719 15.1244 15.5432 15.1244C16.1975 15.1244 16.7272 15.8151 16.7272 15.8151V14.901C16.4052 14.605 15.9846 14.4336 15.5432 14.4336C14.6032 14.4336 13.8398 15.1763 13.7878 16.1164V16.1891C13.7878 16.7084 13.9592 18.5107 16.5818 19.8195L16.7324 19.8922L16.883 19.8195C19.8744 18.3393 19.677 16.1891 19.677 16.0385H19.0123V16.0644H19.0019Z" fill="white"/>
<path d="M14.4584 16.0385H13.7937C13.7937 16.1891 13.5964 18.3341 16.5877 19.8195L16.7383 19.8922L16.8889 19.8195C19.5063 18.5107 19.6829 16.7084 19.6829 16.1891V16.1164C19.6309 15.1763 18.8675 14.4336 17.9275 14.4336C17.4809 14.4336 17.0603 14.605 16.7383 14.901V15.8203C16.7383 15.8203 17.3147 15.1296 17.9275 15.1296C18.4936 15.1296 18.9662 15.5762 18.9922 16.1423V16.1943C19.0181 16.615 18.8675 18.0224 16.7175 19.1599C14.7181 18.0952 14.4688 16.8123 14.4688 16.0696V16.0385H14.4584Z" fill="white"/>
<path d="M17.2265 16.7233H17.1486H16.998V16.6298V16.3597V16.1104H16.4631V16.3597V16.5103V16.7181H16.1204H15.8711V17.2531H15.9074H16.1152H16.4579V17.7933V17.8504H16.9928V17.7933V17.279H17.1642H17.5849V17.1648V16.7233H17.2265Z" fill="white"/>
<path d="M4.13892 26.193L5.11525 25.4502L5.3074 25.7047L4.33107 26.4475L4.13892 26.193Z" fill="#231F20"/>
<path d="M4.36772 24.3642L3.29272 24.9564L3.13692 24.6759L3.51083 23.7981L2.85648 24.1617L2.70068 23.8812L3.77569 23.2891L3.93149 23.5695L3.55757 24.4474L4.21192 24.0838L4.36772 24.3642Z" fill="#231F20"/>
<path d="M2.19658 21.9806L3.09502 21.6533L3.20408 21.9546L2.30564 22.2818L2.39393 22.5259L2.13946 22.6194L1.84863 21.8299L2.1031 21.7364L2.19658 21.9806Z" fill="#231F20"/>
<path d="M1.5942 19.7739L1.67729 20.1426L1.87464 20.1011L1.79674 19.7531L2.0616 19.6959L2.1395 20.044L2.34723 19.9972L2.26413 19.6284L2.52899 19.5713L2.6796 20.2517L1.47995 20.5166L1.32935 19.8362L1.5942 19.7739Z" fill="#231F20"/>
<path d="M1.08587 17.9137C1.08068 17.8202 1.08587 17.7059 1.17416 17.6072C1.24167 17.5345 1.34553 17.4878 1.44421 17.4826C1.54807 17.4774 1.64155 17.5034 1.70387 17.5605C1.75061 17.6072 1.78696 17.6696 1.80254 17.7215L2.27513 17.3008L2.3011 17.6955L1.85447 18.0332L2.32187 18.002L2.34264 18.3188L1.11703 18.4071L1.08587 17.9137ZM1.64674 18.0539L1.64155 17.9916C1.63636 17.9449 1.62078 17.8773 1.57923 17.841C1.55326 17.8202 1.51172 17.8046 1.47537 17.8098C1.43901 17.8098 1.39747 17.8306 1.37669 17.8617C1.35073 17.8929 1.33515 17.95 1.34034 18.0176L1.34553 18.0799L1.64674 18.0539Z" fill="#231F20"/>
<path d="M2.27974 16.123L1.05933 16.0087L1.09049 15.6919L1.89544 15.1776L1.14761 15.1049L1.17877 14.7881L2.39919 14.9024L2.36803 15.2192L1.56307 15.7334L2.3109 15.8061L2.27974 16.123Z" fill="#231F20"/>
<path d="M2.63324 12.8444L2.52419 13.2755L2.70076 13.4054L2.61766 13.7326L1.54785 12.9691L1.63614 12.6315L2.93965 12.4912L2.85655 12.8184L2.63324 12.8444ZM2.37877 12.8652L1.95812 12.9015L2.31126 13.1301L2.37877 12.8652Z" fill="#231F20"/>
<path d="M2.64843 10.6166L3.5261 10.9957L3.40146 11.2866L2.5238 10.9074L2.41993 11.1464L2.17065 11.0373L2.50302 10.2686L2.7523 10.3776L2.64843 10.6166Z" fill="#231F20"/>
<path d="M3.29747 8.78906L4.3517 9.41236L4.19071 9.68765L3.13647 9.06435L3.29747 8.78906Z" fill="#231F20"/>
<path d="M5.65062 7.3549C5.6662 7.5263 5.60388 7.7029 5.48963 7.84314C5.37538 7.98339 5.21439 8.08207 5.04301 8.10285C4.86124 8.12363 4.68987 8.06649 4.56523 7.9678C4.4354 7.86392 4.34192 7.7081 4.32634 7.5263C4.31076 7.3549 4.37308 7.1783 4.48733 7.03805C4.60158 6.89781 4.76257 6.79912 4.93395 6.77835C5.11052 6.75238 5.28709 6.81471 5.41173 6.91859C5.54156 7.01728 5.63504 7.1731 5.65062 7.3549ZM4.64832 7.48994C4.65871 7.58344 4.70545 7.66135 4.77296 7.71849C4.85605 7.78601 4.94953 7.7964 5.01185 7.78601C5.09494 7.77562 5.17803 7.73926 5.24555 7.65616C5.31306 7.57305 5.33383 7.48475 5.32345 7.40684C5.31306 7.32893 5.27671 7.24063 5.204 7.18349C5.13129 7.12116 5.03782 7.10558 4.95992 7.11077C4.86644 7.12116 4.78335 7.1731 4.73141 7.24063C4.67429 7.30296 4.64313 7.39645 4.64832 7.48994Z" fill="#231F20"/>
<path d="M6.76663 6.40512L5.96167 5.48056L6.20056 5.2728L7.13535 5.45459L6.64199 4.88843L6.88088 4.68066L7.68584 5.60522L7.44694 5.81299L6.51216 5.63119L7.00552 6.19735L6.76663 6.40512Z" fill="#231F20"/>
<path d="M9.28054 4.27567L8.90143 4.50421L8.93778 4.72236L8.65215 4.89896L8.41846 3.60562L8.71447 3.42383L9.74793 4.23411L9.45711 4.41071L9.28054 4.27567ZM9.08319 4.10945L8.76121 3.83936L8.85469 4.2497L9.08319 4.10945Z" fill="#231F20"/>
<path d="M10.641 2.45801L11.0097 3.34101L11.3629 3.19038L11.4667 3.4397L10.8228 3.70979L10.345 2.57747L10.641 2.45801Z" fill="#231F20"/>
<path d="M14.0217 2.69574L14.0685 1.45434L14.3801 1.41279L14.7124 2.03089L14.889 1.34526L15.2058 1.30371L15.5485 2.49317L15.2318 2.53472L15.05 1.8439L14.8475 2.58147L14.7228 2.59705L14.3489 1.9322L14.3385 2.6438L14.0217 2.69574Z" fill="#231F20"/>
<path d="M17.5274 1.53306L17.1482 1.52267L17.143 1.72524L17.5014 1.73563L17.491 2.00573L17.1327 1.99534L17.1275 2.2083L17.5066 2.21868L17.4962 2.48878L16.8003 2.468L16.8418 1.24219L17.5377 1.26296L17.5274 1.53306Z" fill="#231F20"/>
<path d="M18.7527 2.61324L18.976 1.4082L19.3863 1.48612C19.5057 1.50689 19.7082 1.56403 19.8329 1.74063C19.9471 1.90165 19.9419 2.07825 19.9212 2.21329C19.89 2.37431 19.8277 2.50417 19.6875 2.60285C19.5732 2.68077 19.3967 2.7379 19.1889 2.70154L18.7527 2.61324ZM19.111 2.40548L19.1733 2.41587C19.2512 2.43145 19.3551 2.44184 19.4538 2.37951C19.5005 2.34834 19.568 2.28082 19.594 2.15096C19.6148 2.03669 19.5992 1.938 19.5473 1.87048C19.4849 1.78737 19.3915 1.7614 19.3136 1.75102L19.2357 1.73543L19.111 2.40548Z" fill="#231F20"/>
<path d="M21.7137 2.08405L21.3292 3.24763L21.0278 3.14893L21.4123 1.98535L21.7137 2.08405Z" fill="#231F20"/>
<path d="M23.3645 4.07792C23.2295 4.06234 23.162 4.04676 23.0893 4.01559C22.8971 3.9221 22.7881 3.77666 22.7413 3.64681C22.6842 3.48579 22.6998 3.30919 22.7673 3.16375C22.8452 3.00793 22.9802 2.88846 23.1308 2.83652C23.2762 2.78458 23.458 2.78458 23.6294 2.86769C23.6813 2.89366 23.7644 2.9404 23.8631 3.04948L23.6969 3.39229C23.6605 3.23128 23.5515 3.17414 23.5048 3.15336C23.4217 3.11181 23.349 3.10662 23.2711 3.13259C23.1724 3.16375 23.1049 3.23647 23.0633 3.31438C23.027 3.39229 23.0166 3.49098 23.0477 3.57409C23.0737 3.64161 23.136 3.70914 23.2139 3.75069C23.2555 3.77147 23.3645 3.81821 23.5203 3.75588L23.3645 4.07792Z" fill="#231F20"/>
<path d="M25.1717 4.99222L24.8081 4.73771L24.6212 4.86237L24.3459 4.67018L25.4313 3.93262L25.717 4.12999L25.395 5.39736L25.1146 5.20518L25.1717 4.99222ZM25.2392 4.7429L25.3534 4.33776L25.0159 4.58708L25.2392 4.7429Z" fill="#231F20"/>
<path d="M27.384 5.4955L26.7297 6.19151L27.0101 6.45122L26.8231 6.6486L26.3142 6.17073L27.1555 5.27734L27.384 5.4955Z" fill="#231F20"/>
<path d="M29.7417 8.80983L29.534 8.49299L29.3626 8.60207L29.5599 8.90333L29.3314 9.04876L29.1341 8.7475L28.9575 8.86177L29.1652 9.17862L28.9367 9.32405L28.5576 8.74231L29.5859 8.07227L29.965 8.65401L29.7417 8.80983Z" fill="#231F20"/>
<path d="M29.9549 11.2195C29.8615 11.126 29.8147 11.0689 29.7836 10.9962C29.6953 10.804 29.7057 10.6222 29.7524 10.4871C29.8095 10.3261 29.9342 10.1963 30.0796 10.1288C30.2354 10.056 30.4171 10.056 30.5677 10.108C30.7132 10.1599 30.8534 10.2742 30.9365 10.4456C30.9624 10.4975 30.9936 10.591 30.9988 10.7313L30.656 10.8923C30.7287 10.7469 30.682 10.6326 30.6612 10.5858C30.6249 10.5027 30.5677 10.4508 30.495 10.4196C30.4016 10.3833 30.2977 10.3937 30.2198 10.43C30.1419 10.4664 30.0744 10.5391 30.0432 10.6222C30.0224 10.6897 30.0225 10.7832 30.064 10.8663C30.0848 10.9079 30.1367 11.0118 30.2977 11.0637L29.9549 11.2195Z" fill="#231F20"/>
<path d="M30.817 13.4316C30.6664 13.3433 30.5625 13.1927 30.5106 13.0161C30.4639 12.8395 30.4743 12.6525 30.5573 12.5019C30.6404 12.3409 30.791 12.237 30.9468 12.1902C31.1026 12.1487 31.2896 12.1591 31.4402 12.2526C31.5908 12.3409 31.6947 12.4915 31.7466 12.6681C31.7933 12.8447 31.783 13.0317 31.6999 13.1823C31.6168 13.3433 31.4662 13.4472 31.3104 13.4939C31.1546 13.5355 30.9728 13.5251 30.817 13.4316ZM31.2844 12.5382C31.2065 12.4915 31.1078 12.4863 31.0247 12.5071C30.9209 12.5382 30.8637 12.6058 30.8326 12.6629C30.791 12.7356 30.7755 12.8239 30.8066 12.9278C30.8378 13.0317 30.8949 13.0992 30.9624 13.1407C31.0351 13.1823 31.1234 13.1979 31.2169 13.1719C31.3104 13.1459 31.3779 13.0836 31.4142 13.0109C31.4558 12.9278 31.4662 12.8291 31.4402 12.746C31.4246 12.6681 31.3675 12.585 31.2844 12.5382Z" fill="#231F20"/>
<path d="M31.3103 14.9372C31.2531 15.01 31.2064 15.119 31.2168 15.2281C31.222 15.2904 31.248 15.3268 31.2739 15.3476C31.2947 15.3632 31.3207 15.3736 31.3518 15.3684C31.3778 15.3632 31.4037 15.3528 31.4193 15.3268C31.4453 15.2904 31.4505 15.2437 31.4661 15.1606L31.4816 15.0775C31.492 15.0255 31.5128 14.9476 31.5595 14.8905C31.6219 14.823 31.705 14.8022 31.7673 14.797C31.9179 14.7814 32.0166 14.8282 32.0737 14.8749C32.1412 14.932 32.2087 15.0255 32.2243 15.1762C32.2399 15.2956 32.2139 15.4411 32.1672 15.5657L31.9075 15.467C31.9698 15.3632 31.9698 15.2904 31.9646 15.2489C31.9594 15.2177 31.949 15.1762 31.9179 15.1502C31.8971 15.1346 31.8763 15.1242 31.8504 15.1242C31.8296 15.1242 31.814 15.1346 31.7984 15.145C31.788 15.1554 31.7673 15.1814 31.7569 15.2593L31.7361 15.358C31.7205 15.4359 31.6998 15.519 31.6374 15.5917C31.5803 15.6592 31.5128 15.6852 31.4297 15.6956C31.3207 15.706 31.2064 15.6904 31.1077 15.6125C30.9935 15.519 30.9571 15.3943 30.9415 15.2645C30.9312 15.1866 30.9312 15.1138 30.9571 15.0203C30.9623 14.9996 30.9831 14.9217 31.035 14.823L31.3103 14.9372Z" fill="#231F20"/>
<path d="M31.648 17.2651L32.3024 16.8496L32.2868 17.2288L31.944 17.4469L32.2712 17.6807L32.2556 18.065L31.6376 17.582L31.0508 17.5612L31.0612 17.2392L31.648 17.2651Z" fill="#231F20"/>
<path d="M31.2425 19.2329C31.1646 19.29 31.0867 19.3783 31.0659 19.4874C31.0555 19.5497 31.0659 19.5913 31.0867 19.6173C31.1022 19.638 31.1282 19.6588 31.1594 19.664C31.1853 19.6692 31.2113 19.664 31.2373 19.6432C31.2684 19.6173 31.2892 19.5705 31.3308 19.4978L31.3723 19.4199C31.3983 19.3731 31.4398 19.3056 31.5021 19.2641C31.58 19.2173 31.6683 19.2225 31.7306 19.2329C31.8812 19.2589 31.9591 19.3368 32.0007 19.3991C32.0526 19.4718 32.0838 19.5809 32.0578 19.7315C32.037 19.851 31.9695 19.9808 31.8916 20.0847L31.6683 19.9133C31.7618 19.8354 31.7826 19.7627 31.7878 19.7211C31.793 19.69 31.793 19.6484 31.7722 19.6121C31.7566 19.5913 31.741 19.5757 31.7151 19.5705C31.6943 19.5653 31.6787 19.5653 31.6579 19.5757C31.6475 19.5809 31.6216 19.6017 31.5852 19.6692L31.5385 19.7575C31.5021 19.8302 31.4606 19.9029 31.3775 19.9549C31.2996 20.0068 31.2321 20.0068 31.149 19.9912C31.0399 19.9705 30.9361 19.9237 30.8686 19.8198C30.7855 19.6952 30.7855 19.5705 30.8114 19.4407C30.827 19.3627 30.8478 19.2952 30.8945 19.2121C30.9049 19.1913 30.9465 19.1238 31.0244 19.0459L31.2425 19.2329Z" fill="#231F20"/>
<path d="M31.1754 21.8818L30.2666 21.5806L30.3653 21.2793L31.2741 21.5806L31.3572 21.3312L31.6117 21.4143L31.3468 22.209L31.0923 22.1259L31.1754 21.8818Z" fill="#231F20"/>
<path d="M30.2771 23.9854L30.4433 23.6478L30.2615 23.5595L30.1057 23.8815L29.8617 23.7621L30.0175 23.44L29.8253 23.3465L29.6591 23.6842L29.415 23.5647L29.7214 22.9414L30.8224 23.4816L30.516 24.1049L30.2771 23.9854Z" fill="#231F20"/>
<path d="M28.8275 24.6084L29.7052 25.4914L29.5234 25.7459L28.8483 25.5693L29.2274 26.1614L29.0404 26.4212L27.9395 25.8602L28.1264 25.6005L28.7548 25.9381L28.3549 25.2888L28.4276 25.1849L29.1651 25.3667L28.6509 24.8733L28.8275 24.6084Z" fill="#231F20"/>
<path d="M8.24131 29.6726C8.22052 29.5895 8.24131 29.5012 8.28287 29.4388C8.32444 29.3765 8.39718 29.3246 8.48551 29.3038C8.55825 29.2882 8.63619 29.3038 8.70374 29.3453C8.76089 29.3817 8.80766 29.4388 8.82844 29.522C8.85442 29.631 8.82324 29.7142 8.78687 29.7609C8.74531 29.8232 8.67776 29.8752 8.59982 29.8908C8.51669 29.9063 8.43355 29.8908 8.3712 29.8492C8.31405 29.818 8.2569 29.7557 8.24131 29.6726Z" fill="#231F20"/>
<path d="M13.2737 30.862L12.8582 32.4254L12.4531 32.3164L12.8686 30.7529L13.2737 30.862Z" fill="#231F20"/>
<path d="M14.2344 32.7366L14.655 31.1523L15.0705 31.1887L15.3146 32.0769L15.7404 31.251L16.1559 31.2874L16.2494 32.9235L15.8339 32.8872L15.8027 31.947L15.325 32.8404L15.1588 32.8249L14.8731 31.8639L14.6498 32.7781L14.2344 32.7366Z" fill="#231F20"/>
<path d="M18.4773 31.5417L17.9788 31.5832L17.9996 31.8533L18.4721 31.8118L18.5033 32.165L18.0307 32.2065L18.0567 32.487L18.5552 32.4455L18.5864 32.7987L17.6724 32.8766L17.5374 31.2664L18.4514 31.1885L18.4773 31.5417Z" fill="#231F20"/>
<path d="M19.9522 32.0828C20.0613 32.1451 20.2119 32.1919 20.3521 32.1555C20.4352 32.1347 20.4768 32.0984 20.4975 32.062C20.5131 32.0308 20.5235 31.9945 20.5131 31.9529C20.5079 31.9218 20.4871 31.8906 20.4456 31.8698C20.3989 31.8439 20.3313 31.8439 20.2223 31.8387L20.108 31.8335C20.0353 31.8283 19.9315 31.8179 19.8484 31.7607C19.7445 31.6932 19.7133 31.5841 19.6926 31.5062C19.6458 31.3141 19.6926 31.179 19.7445 31.0907C19.8068 30.992 19.9211 30.8881 20.1132 30.8466C20.269 30.8102 20.4612 30.8154 20.6274 30.857L20.5443 31.2154C20.3989 31.1478 20.3054 31.1634 20.2483 31.1738C20.2067 31.1842 20.1548 31.205 20.1236 31.2517C20.108 31.2829 20.0976 31.3089 20.1028 31.3452C20.108 31.3712 20.1184 31.392 20.1392 31.4127C20.1548 31.4231 20.1911 31.4439 20.295 31.4491L20.43 31.4543C20.5339 31.4595 20.6481 31.4699 20.752 31.5426C20.8507 31.6101 20.8974 31.688 20.9234 31.7971C20.9597 31.9425 20.9545 32.088 20.8714 32.2282C20.7676 32.3944 20.6118 32.462 20.4456 32.5035C20.3469 32.5295 20.2483 32.5399 20.1236 32.5243C20.0976 32.5191 19.9886 32.5087 19.8536 32.4568L19.9522 32.0828Z" fill="#231F20"/>
<path d="M24.8648 29.9011C24.7765 29.8855 24.709 29.8336 24.6674 29.7713C24.6258 29.7089 24.605 29.6206 24.6258 29.5323C24.6414 29.4596 24.6882 29.3921 24.7557 29.3505C24.8129 29.3141 24.8856 29.2934 24.9688 29.3089C25.0779 29.3297 25.1402 29.3921 25.1766 29.4388C25.2182 29.5011 25.2337 29.5843 25.2182 29.6622C25.2026 29.7453 25.1506 29.8128 25.0883 29.8544C25.0259 29.8959 24.9532 29.9167 24.8648 29.9011Z" fill="#231F20"/>
<path d="M38.1189 16.8657V13.3545H39.0848V16.8657H38.1189Z" fill="black"/>
<path d="M39.8582 16.8657V13.3545H40.7826L42.1068 15.1621C42.138 15.214 42.1847 15.2867 42.2315 15.3854C42.299 15.5153 42.3613 15.6451 42.4236 15.7802C42.3977 15.5984 42.3873 15.4685 42.3821 15.3958C42.3717 15.2815 42.3665 15.1776 42.3665 15.0893V13.3545H43.2857V16.8657H42.3665L41.0422 15.053C41.0214 15.027 40.9799 14.9543 40.9176 14.8296C40.8605 14.7257 40.7981 14.5959 40.7254 14.4401C40.741 14.5647 40.7566 14.6946 40.7722 14.8296C40.7774 14.9803 40.7826 15.0841 40.7826 15.1361V16.8709H39.8582V16.8657Z" fill="black"/>
<path d="M44.5531 16.8657V14.1856H43.7637V13.3545H46.298V14.1856H45.5086V16.8657H44.5531Z" fill="black"/>
<path d="M46.7654 16.8657V13.3545H48.9154V14.1284H47.7002V14.7309H48.8479V15.4893H47.7002V16.0814H48.9206V16.8709H46.7654V16.8657Z" fill="black"/>
<path d="M49.5483 16.8657V13.3545H50.5506C50.7428 13.3545 50.909 13.3597 51.044 13.3649C51.179 13.3753 51.2881 13.3857 51.3764 13.4064C51.527 13.4428 51.6568 13.4999 51.7763 13.5882C51.9061 13.6817 51.9996 13.8064 52.0671 13.957C52.1346 14.1024 52.1709 14.2635 52.1709 14.4453C52.1709 14.7154 52.1034 14.9387 51.9684 15.1101C51.8386 15.2815 51.6412 15.3958 51.3868 15.4477L52.3423 16.8657H51.2621L50.4572 15.4893V16.8657H49.5483ZM50.4468 15.0114H50.6233C50.8311 15.0114 50.9817 14.9751 51.0752 14.9075C51.1686 14.8296 51.2154 14.7205 51.2154 14.5751C51.2154 14.3985 51.1738 14.2739 51.0855 14.2011C50.9973 14.1284 50.8467 14.0869 50.6389 14.0869H50.4468V15.0114Z" fill="black"/>
<path d="M52.7012 16.8657V13.3545H53.6256L54.9499 15.1621C54.981 15.214 55.0278 15.2867 55.0745 15.3854C55.142 15.5153 55.2043 15.6451 55.2666 15.7802C55.2407 15.5984 55.2303 15.4685 55.2251 15.3958C55.2147 15.2815 55.2095 15.1776 55.2095 15.0893V13.3545H56.1287V16.8657H55.2095L53.8852 15.053C53.8645 15.027 53.8229 14.9543 53.7606 14.8296C53.7035 14.7257 53.6412 14.5959 53.5684 14.4401C53.584 14.5647 53.5996 14.6946 53.6152 14.8296C53.6204 14.9803 53.6256 15.0841 53.6256 15.1361V16.8709H52.7012V16.8657Z" fill="black"/>
<path d="M56.4714 16.8657L57.6815 13.3545H58.8811L60.0963 16.8657H59.146L58.9694 16.2372H57.6088L57.427 16.8657H56.4714ZM57.8165 15.5516H58.7669L58.4085 14.3933C58.3981 14.3725 58.3878 14.3154 58.3618 14.2219C58.3358 14.1128 58.3099 14.0141 58.2891 13.9207C58.2683 14.0038 58.2475 14.0869 58.232 14.17C58.206 14.2479 58.1852 14.3258 58.1696 14.3933L57.8165 15.5516Z" fill="black"/>
<path d="M60.9429 16.8657V14.1856H60.1536V13.3545H62.6827V14.1856H61.8933V16.8657H60.9429Z" fill="black"/>
<path d="M63.1758 16.8657V13.3545H64.1417V16.8657H63.1758Z" fill="black"/>
<path d="M68.52 15.1154C68.52 15.3699 68.4732 15.6088 68.385 15.827C68.2915 16.0452 68.1565 16.2373 67.9799 16.4191C67.8033 16.5905 67.5956 16.7256 67.3671 16.8191C67.1282 16.9126 66.8893 16.9593 66.6504 16.9593C66.4115 16.9593 66.1726 16.9126 65.9337 16.8191C65.7 16.7256 65.4975 16.5905 65.3261 16.4191C65.1547 16.2529 65.0197 16.0555 64.921 15.8218C64.8276 15.5933 64.7756 15.3595 64.7756 15.1154C64.7756 14.8713 64.8224 14.6323 64.921 14.409C65.0197 14.1753 65.1547 13.9779 65.3261 13.8117C65.5027 13.6351 65.7052 13.5 65.9337 13.4065C66.157 13.313 66.3959 13.2715 66.6504 13.2715C66.9049 13.2715 67.1438 13.3182 67.3723 13.4117C67.6008 13.5052 67.8033 13.6403 67.9799 13.8117C68.1565 13.9883 68.2967 14.1857 68.3902 14.409C68.4784 14.6323 68.52 14.8661 68.52 15.1154ZM66.6452 16.149C66.9101 16.149 67.1282 16.0503 67.3048 15.853C67.393 15.7543 67.4554 15.6452 67.4969 15.5257C67.5385 15.4063 67.5592 15.266 67.5592 15.1154C67.5592 14.8245 67.4709 14.5752 67.2996 14.3778C67.123 14.1805 66.9049 14.0818 66.64 14.0818C66.3752 14.0818 66.1519 14.1805 65.9805 14.3778C65.8091 14.5752 65.7208 14.8193 65.7208 15.1154C65.7208 15.4219 65.8039 15.666 65.9753 15.8582C66.157 16.0503 66.3752 16.149 66.6452 16.149Z" fill="black"/>
<path d="M69.1218 16.8657V13.3545H70.0462L71.3705 15.1621C71.4017 15.214 71.4484 15.2867 71.4951 15.3854C71.5627 15.5153 71.625 15.6451 71.6873 15.7802C71.6613 15.5984 71.6509 15.4685 71.6458 15.3958C71.6354 15.2815 71.6302 15.1776 71.6302 15.0893V13.3545H72.5494V16.8657H71.6302L70.3059 15.053C70.2851 15.027 70.2436 14.9543 70.1813 14.8296C70.1241 14.7257 70.0618 14.5959 69.9891 14.4401C70.0047 14.5647 70.0203 14.6946 70.0358 14.8296C70.041 14.9803 70.0462 15.0841 70.0462 15.1361V16.8709H69.1218V16.8657Z" fill="black"/>
<path d="M72.8931 16.8657L74.1031 13.3545H75.3027L76.518 16.8657H75.5676L75.391 16.2372H74.0304L73.8486 16.8657H72.8931ZM74.2381 15.5516H75.1885L74.8302 14.3933C74.8198 14.3725 74.8094 14.3154 74.7834 14.2219C74.7574 14.1128 74.7315 14.0141 74.7107 13.9207C74.6899 14.0038 74.6692 14.0869 74.6536 14.17C74.6276 14.2479 74.6068 14.3258 74.5913 14.3933L74.2381 15.5516Z" fill="black"/>
<path d="M76.855 16.8657V13.3545H77.8105V16.0451H78.9998V16.8657H76.855Z" fill="black"/>
<path d="M38.3207 19.4199H38.6583L39.297 20.9522L39.967 19.4199H40.3045L40.7096 21.83H40.2318L40.0137 20.3445L39.3697 21.83H39.2088L38.5908 20.3445L38.3467 21.83H37.8689L38.3207 19.4199Z" fill="black"/>
<path d="M42.9069 19.8257H42.0397V20.3659H42.8706V20.7711H42.0397V21.4307H42.9069V21.8359H41.5723V19.4258H42.9069V19.8257Z" fill="black"/>
<path d="M44.4231 19.4202C44.7607 19.4202 45.0515 19.4566 45.3164 19.654C45.6072 19.8721 45.7786 20.2253 45.7786 20.6253C45.7786 21.0252 45.6124 21.3732 45.2956 21.5966C45.0152 21.794 44.7503 21.8251 44.4127 21.8251H43.7896V19.415H44.4231V19.4202ZM44.2621 21.4252H44.4075C44.527 21.4252 44.7867 21.42 44.9944 21.2641C45.1865 21.1291 45.2956 20.8798 45.2956 20.6253C45.2956 20.3708 45.1917 20.1266 44.9996 19.9812C44.8022 19.8358 44.5685 19.8202 44.4075 19.8202H44.2621V21.4252Z" fill="black"/>
<path d="M47.1129 19.4199V21.8298H46.6455V19.4199H47.1129Z" fill="black"/>
<path d="M49.8449 21.7419C49.6994 21.8198 49.5073 21.8821 49.2476 21.8821C48.827 21.8821 48.5673 21.7367 48.3648 21.5445C48.0843 21.2796 47.9805 20.9783 47.9805 20.6251C47.9805 20.1888 48.1622 19.872 48.3648 19.685C48.6089 19.4565 48.9049 19.3682 49.2476 19.3682C49.419 19.3682 49.6215 19.3993 49.8397 19.5136V20.0642C49.6215 19.8097 49.3463 19.7941 49.258 19.7941C48.775 19.7941 48.4582 20.1888 48.4582 20.6355C48.4582 21.1705 48.8685 21.4562 49.2736 21.4562C49.4969 21.4562 49.6942 21.3575 49.8345 21.1913V21.7419H49.8449Z" fill="black"/>
<path d="M52.1344 21.3262H51.1633L50.9503 21.83H50.4414L51.4749 19.4199H51.8436L52.8511 21.83H52.3473L52.1344 21.3262ZM51.9994 20.9418L51.6566 20.0744L51.3139 20.9418H51.9994Z" fill="black"/>
<path d="M54.0412 19.4199V21.4249H54.7838V21.83H53.5686V19.4199H54.0412Z" fill="black"/>
<path d="M58.1489 19.8257H57.2816V20.3659H58.1125V20.7711H57.2816V21.4307H58.1489V21.8359H56.8142V19.4258H58.1489V19.8257Z" fill="black"/>
<path d="M60.7867 21.7419C60.6413 21.8198 60.4492 21.8821 60.1895 21.8821C59.7689 21.8821 59.5092 21.7367 59.3067 21.5445C59.0262 21.2796 58.9224 20.9783 58.9224 20.6251C58.9224 20.1888 59.1041 19.872 59.3067 19.685C59.5507 19.4565 59.8468 19.3682 60.1895 19.3682C60.3609 19.3682 60.5634 19.3993 60.7816 19.5136V20.0642C60.5634 19.8097 60.2882 19.7941 60.1999 19.7941C59.7169 19.7941 59.4001 20.1888 59.4001 20.6355C59.4001 21.1705 59.8104 21.4562 60.2155 21.4562C60.4388 21.4562 60.6361 21.3575 60.7764 21.1913V21.7419H60.7867Z" fill="black"/>
<path d="M64.1055 20.6303C64.1055 21.3627 63.581 21.8873 62.8228 21.8873C62.0646 21.8873 61.54 21.3627 61.54 20.6303C61.54 19.898 62.0646 19.3682 62.8228 19.3682C63.581 19.3682 64.1055 19.898 64.1055 20.6303ZM63.6225 20.6303C63.6225 20.1421 63.2902 19.7941 62.8228 19.7941C62.3554 19.7941 62.023 20.1421 62.023 20.6303C62.023 21.1186 62.3554 21.4614 62.8228 21.4614C63.2902 21.4614 63.6225 21.1134 63.6225 20.6303Z" fill="black"/>
<path d="M66.1566 19.971C66.0164 19.784 65.8502 19.7632 65.7619 19.7632C65.5075 19.7632 65.4296 19.9242 65.4296 20.0437C65.4296 20.1008 65.4451 20.158 65.5075 20.2047C65.5646 20.2567 65.6425 20.2878 65.7983 20.3398C65.9852 20.4073 66.1618 20.4696 66.2865 20.5839C66.3955 20.6826 66.4942 20.8436 66.4942 21.0877C66.4942 21.5552 66.1566 21.8772 65.6581 21.8772C65.2166 21.8772 64.9518 21.6071 64.8272 21.4202L65.1335 21.1293C65.2478 21.363 65.4711 21.4513 65.6373 21.4513C65.8502 21.4513 66.0112 21.3215 66.0112 21.1189C66.0112 21.0306 65.9801 20.9631 65.9177 20.9007C65.8295 20.8176 65.684 20.7709 65.5438 20.7241C65.4192 20.6826 65.2634 20.6255 65.1439 20.5164C65.066 20.4489 64.9518 20.3138 64.9518 20.0697C64.9518 19.7165 65.1907 19.3633 65.7256 19.3633C65.8762 19.3633 66.1618 19.3944 66.4059 19.6438L66.1566 19.971Z" fill="black"/>
<path d="M67.8025 20.7288L66.9768 19.4199H67.5325L68.0466 20.2562L68.5608 19.4199H69.1164L68.2699 20.7288V21.83H67.8025V20.7288Z" fill="black"/>
<path d="M70.8932 19.971C70.753 19.784 70.5868 19.7632 70.4985 19.7632C70.244 19.7632 70.1661 19.9242 70.1661 20.0437C70.1661 20.1008 70.1817 20.158 70.244 20.2047C70.3012 20.2567 70.3791 20.2878 70.5349 20.3398C70.7218 20.4073 70.8984 20.4696 71.023 20.5839C71.1321 20.6826 71.2308 20.8436 71.2308 21.0877C71.2308 21.5552 70.8932 21.8772 70.3946 21.8772C69.9532 21.8772 69.6884 21.6071 69.5637 21.4202L69.8701 21.1293C69.9844 21.363 70.2077 21.4513 70.3739 21.4513C70.5868 21.4513 70.7478 21.3215 70.7478 21.1189C70.7478 21.0306 70.7166 20.9631 70.6543 20.9007C70.566 20.8176 70.4206 20.7709 70.2804 20.7241C70.1558 20.6826 70 20.6255 69.8805 20.5164C69.8026 20.4489 69.6884 20.3138 69.6884 20.0697C69.6884 19.7165 69.9273 19.3633 70.4622 19.3633C70.6128 19.3633 70.8984 19.3944 71.1425 19.6438L70.8932 19.971Z" fill="black"/>
<path d="M72.7936 19.8251V21.83H72.3262V19.8251H71.7861V19.4199H73.3389V19.8251H72.7936Z" fill="black"/>
<path d="M75.4006 19.8257H74.5333V20.3659H75.3642V20.7711H74.5333V21.4307H75.4006V21.8359H74.0659V19.4258H75.4006V19.8257Z" fill="black"/>
<path d="M76.611 19.4199H76.9486L77.5873 20.9522L78.2573 19.4199H78.5948L78.9999 21.83H78.5221L78.304 20.3445L77.66 21.83H77.499L76.881 20.3445L76.637 21.83H76.1592L76.611 19.4199Z" fill="black"/>
</svg>
